<svg width="112" height="46" viewBox="0 0 112 46" fill="none" xmlns="http://www.w3.org/2000/svg">
<path d="M43.6994 29.2368C43.6994 28.0168 44.4861 27.0965 45.3747 26.5591C45.0063 26.2716 44.7063 25.9054 44.4965 25.4871C44.2866 25.0687 44.1722 24.6088 44.1615 24.1406C44.1615 19.4201 52.7445 19.1109 52.7445 24.1406C52.7374 24.6115 52.6225 25.0745 52.4089 25.4938C52.1952 25.9131 51.8885 26.2776 51.5122 26.5591C52.0217 26.8036 52.4524 27.1871 52.7549 27.6657C53.0575 28.1442 53.2197 28.6986 53.2231 29.2653C53.2231 31.993 50.9151 33.0394 48.5549 33.0394C45.9909 33.0394 43.6994 31.9764 43.6994 29.2487M50.9838 29.2653C50.9838 26.9657 45.9221 27.0323 45.9221 29.2653C45.9221 31.4984 50.9838 31.6434 50.9838 29.2653ZM50.5383 24.0122C50.5383 22.074 46.3676 22.093 46.3676 24.0122C46.3676 25.9313 50.5383 25.9693 50.5383 24.0122Z" fill="#28BDC7"/>
<path d="M61.2398 31.9478L56.7255 22.4569C56.0597 21.1013 58.0763 19.986 58.8275 21.4105L60.3512 24.8587L62.318 29.3771L64.2493 24.8587L65.7706 21.4176C66.4555 20.1144 68.4389 20.942 67.856 22.3689L63.4957 31.9621C63.1047 33.0417 61.8891 33.3009 61.2398 31.9621" fill="#28BDC7"/>
<path d="M69.6877 21.8742C69.6877 20.4688 71.9437 20.4165 71.9437 21.8742V31.672C71.9437 33.0988 69.6877 33.1297 69.6877 31.672V21.8742Z" fill="#28BDC7"/>
<path d="M75.5195 32.7184C75.3797 32.7206 75.2408 32.6947 75.1112 32.6421C74.9815 32.5895 74.8637 32.5113 74.7647 32.4122C74.6657 32.313 74.5875 32.195 74.5348 32.065C74.4821 31.935 74.456 31.7957 74.4579 31.6554V21.9052C74.4543 21.7644 74.4793 21.6244 74.5314 21.4936C74.5835 21.3629 74.6616 21.2441 74.761 21.1447C74.8603 21.0452 74.9788 20.9671 75.1092 20.9151C75.2396 20.8631 75.3792 20.8383 75.5195 20.8422H81.657C81.8091 20.8322 81.9615 20.8537 82.105 20.9052C82.2485 20.9567 82.3798 21.0373 82.4911 21.1418C82.6023 21.2464 82.6909 21.3727 82.7515 21.513C82.8121 21.6533 82.8434 21.8046 82.8434 21.9575C82.8434 22.1104 82.8121 22.2617 82.7515 22.402C82.6909 22.5423 82.6023 22.6687 82.4911 22.7732C82.3798 22.8777 82.2485 22.9583 82.105 23.0098C81.9615 23.0614 81.8091 23.0828 81.657 23.0728H76.7328V25.6459H81.048C82.5717 25.6459 82.5717 27.8956 81.048 27.8956H76.7328V30.4687H81.9461C83.5006 30.4687 83.6215 32.716 81.9461 32.716L75.5195 32.7184Z" fill="#28BDC7"/>
<path d="M96.944 28.6185L99.4914 21.5485C100.003 20.1573 102.072 20.8113 101.56 22.3023L98.1738 31.5174C97.8634 32.4972 97.5743 32.7873 96.989 32.7873C96.3729 32.7873 96.1857 32.4116 95.8444 31.7933L92.8728 25.0134L90.0292 31.6886C89.7212 32.4021 89.4297 32.8206 88.8136 32.8206C88.1974 32.8206 87.9083 32.4116 87.6287 31.6554L84.3112 22.3023C83.7993 20.759 85.9699 20.193 86.4154 21.5485L88.9463 28.6185L91.9724 21.5485C92.3823 20.5021 93.4605 20.4498 93.9037 21.4962L96.944 28.6185Z" fill="#28BDC7"/>
<path d="M102.98 23.4176C103.373 20.0883 108.382 19.489 110.74 21.3083C111.904 22.2595 110.674 23.7458 109.645 22.9896C108.382 22.1834 105.51 21.8005 105.143 23.5912C104.681 26.4045 112.119 24.7803 111.999 29.3557C111.88 33.7148 105.589 33.817 103.231 31.8599C102.991 31.6587 102.834 31.3755 102.79 31.0649C102.746 30.7544 102.819 30.4386 102.994 30.1785C103.439 29.7315 103.942 29.5769 104.515 30.0573C105.918 31.0085 109.525 31.741 109.781 29.3034C109.56 26.7636 102.446 28.2927 102.977 23.4176" fill="#28BDC7"/>
<path d="M27.967 23.225H30.858C31.2445 23.225 31.6152 23.0709 31.8885 22.7966C32.1618 22.5223 32.3154 22.1503 32.3154 21.7624C32.3154 21.3746 32.1618 21.0026 31.8885 20.7283C31.6152 20.454 31.2445 20.2999 30.858 20.2999H27.967C27.5805 20.2999 27.2098 20.454 26.9365 20.7283C26.6632 21.0026 26.5096 21.3746 26.5096 21.7624C26.5096 22.1503 26.6632 22.5223 26.9365 22.7966C27.2098 23.0709 27.5805 23.225 27.967 23.225Z" fill="#28BDC7"/>
<path d="M29.5807 28.6209L33.3438 32.3973C33.6172 32.6716 33.988 32.8258 34.3746 32.8258C34.7612 32.8258 35.132 32.6716 35.4054 32.3973C35.6788 32.1229 35.8324 31.7508 35.8324 31.3628C35.8324 30.9748 35.6788 30.6027 35.4054 30.3283L31.64 26.5519C31.5058 26.411 31.3449 26.2983 31.1667 26.2206C30.9885 26.143 30.7967 26.1018 30.6024 26.0996C30.4081 26.0975 30.2154 26.1343 30.0355 26.2079C29.8557 26.2816 29.6923 26.3906 29.555 26.5285C29.4177 26.6664 29.3093 26.8305 29.2361 27.0111C29.1629 27.1917 29.1264 27.3852 29.1288 27.5801C29.1312 27.7751 29.1724 27.9676 29.2501 28.1463C29.3277 28.325 29.4401 28.4864 29.5807 28.6209Z" fill="#28BDC7"/>
<path d="M26.9196 33.5839V41.591C26.9348 41.9689 27.0951 42.3264 27.3669 42.5884C27.6388 42.8505 28.0012 42.9968 28.3781 42.9968C28.7551 42.9968 29.1174 42.8505 29.3893 42.5884C29.6612 42.3264 29.8215 41.9689 29.8367 41.591V33.5839C29.8215 33.2059 29.6612 32.8485 29.3893 32.5864C29.1174 32.3244 28.7551 32.178 28.3781 32.178C28.0012 32.178 27.6388 32.3244 27.3669 32.5864C27.0951 32.8485 26.9348 33.2059 26.9196 33.5839Z" fill="#28BDC7"/>
<path d="M21.5452 35.2106L13.7489 43.0274C13.486 43.3036 13.3413 43.672 13.3455 44.0539C13.3498 44.4358 13.5027 44.8009 13.7717 45.0711C14.0406 45.3413 14.4042 45.4952 14.7848 45.4999C15.1653 45.5046 15.5326 45.3598 15.8081 45.0963L23.6044 37.2748C23.7516 37.1419 23.8702 36.9804 23.9531 36.8C24.036 36.6197 24.0815 36.4242 24.0866 36.2257C24.0918 36.0271 24.0566 35.8295 23.9832 35.6451C23.9098 35.4606 23.7997 35.2931 23.6597 35.1527C23.5197 35.0123 23.3526 34.902 23.1687 34.8286C22.9848 34.7551 22.7879 34.72 22.59 34.7255C22.3922 34.7309 22.1975 34.7767 22.0178 34.8601C21.8382 34.9435 21.6774 35.0628 21.5452 35.2106Z" fill="#28BDC7"/>
<path d="M16.5925 32.5376H3.50943C3.31326 32.5297 3.11751 32.5616 2.93394 32.6315C2.75037 32.7013 2.58275 32.8077 2.44115 32.9442C2.29956 33.0806 2.1869 33.2444 2.10994 33.4257C2.03299 33.6069 1.99332 33.8019 1.99332 33.999C1.99332 34.196 2.03299 34.391 2.10994 34.5722C2.1869 34.7535 2.29956 34.9173 2.44115 35.0538C2.58275 35.1902 2.75037 35.2966 2.93394 35.3665C3.11751 35.4363 3.31326 35.4682 3.50943 35.4603H16.5925C16.7886 35.4682 16.9844 35.4363 17.168 35.3665C17.3515 35.2966 17.5192 35.1902 17.6608 35.0538C17.8024 34.9173 17.915 34.7535 17.992 34.5722C18.0689 34.391 18.1086 34.196 18.1086 33.999C18.1086 33.8019 18.0689 33.6069 17.992 33.4257C17.915 33.2444 17.8024 33.0806 17.6608 32.9442C17.5192 32.8077 17.3515 32.7013 17.168 32.6315C16.9844 32.5616 16.7886 32.5297 16.5925 32.5376Z" fill="#28BDC7"/>
<path d="M15.0025 27.1607L2.48103 14.5949C2.34885 14.4612 2.1916 14.355 2.01833 14.2826C1.84507 14.2101 1.65923 14.1729 1.47154 14.1729C1.28384 14.1729 1.098 14.2101 0.924742 14.2826C0.751481 14.355 0.594227 14.4612 0.462051 14.5949L0.421766 14.6353C0.288144 14.768 0.182066 14.926 0.109671 15.1001C0.037276 15.2742 0 15.4609 0 15.6496C0 15.8382 0.037276 16.025 0.109671 16.1991C0.182066 16.3732 0.288144 16.5312 0.421766 16.6638L12.9408 29.2273C13.073 29.3614 13.2304 29.4678 13.4039 29.5405C13.5774 29.6131 13.7635 29.6505 13.9515 29.6505C14.1395 29.6505 14.3256 29.6131 14.4991 29.5405C14.6726 29.4678 14.83 29.3614 14.9622 29.2273L15.0025 29.1869C15.1357 29.0542 15.2415 28.8964 15.3137 28.7225C15.3859 28.5487 15.423 28.3622 15.423 28.1738C15.423 27.9854 15.3859 27.7989 15.3137 27.6251C15.2415 27.4512 15.1357 27.2934 15.0025 27.1607Z" fill="#28BDC7"/>
<path d="M17.6423 22.1763V1.96252C17.6423 1.57464 17.4887 1.20264 17.2154 0.928363C16.9421 0.654087 16.5714 0.5 16.1849 0.5C15.7984 0.5 15.4277 0.654087 15.1544 0.928363C14.8811 1.20264 14.7276 1.57464 14.7276 1.96252V22.1763C14.7276 22.5642 14.8811 22.9362 15.1544 23.2104C15.4277 23.4847 15.7984 23.6388 16.1849 23.6388C16.5714 23.6388 16.9421 23.4847 17.2154 23.2104C17.4887 22.9362 17.6423 22.5642 17.6423 22.1763Z" fill="#28BDC7"/>
<path d="M23.0191 20.5544L39.2396 4.27643C39.5021 3.99993 39.6465 3.63135 39.6418 3.24945C39.6371 2.86756 39.4837 2.50267 39.2144 2.23276C38.9452 1.96286 38.5814 1.80936 38.2008 1.80508C37.8203 1.80081 37.4532 1.94609 37.178 2.20987L20.9598 18.4879C20.6867 18.7619 20.5333 19.1336 20.5333 19.5212C20.5333 19.9087 20.6867 20.2804 20.9598 20.5544C21.2329 20.8285 21.6033 20.9824 21.9894 20.9824C22.3756 20.9824 22.746 20.8285 23.0191 20.5544Z" fill="#28BDC7"/>
</svg>
